<svg xmlns="http://www.w3.org/2000/svg" viewBox="0 0 20.8 17.6"><defs><style>.cls-1{font-size:7px;fill:#231f20;font-family:MyriadPro-Regular,Myriad Pro}.cls-2{fill:none;stroke:#231f20;stroke-miterlimit:10;stroke-width:.25px}.cls-3{fill-rule:evenodd}</style></defs><title>Ресурс 1</title><g id="Слой_2" data-name="Слой 2"><g id="Layer_2" data-name="Layer 2"><text class="cls-1" transform="translate(4.81 11)">360</text><circle class="cls-2" cx="15.18" cy="5.81" r=".66"/><path class="cls-3" d="M10.4 16.8a8 8 0 0 1-6.91-4h-.92a8.8 8.8 0 0 0 16.59-3.2h1.64l-2-2.4-2 2.4h1.56a8 8 0 0 1-8 7.2zm0-16.8a8.8 8.8 0 0 0-8.65 7.2H0l2 2.4 2-2.4H2.56A8 8 0 0 1 16.79 4h1a8.79 8.79 0 0 0-7.39-4zm0 0" id="Layer_1" data-name="Layer 1"/></g></g></svg>