<svg xmlns="http://www.w3.org/2000/svg" viewBox="0 0 20.8 17.6"><defs><style>.cls-1{font-size:7px;fill:#231f20;font-family:MyriadPro-Regular, Myriad Pro;}.cls-2{fill:none;stroke:#231f20;stroke-miterlimit:10;stroke-width:0.25px;}.cls-3{fill-rule:evenodd;}</style></defs><title>Ресурс 1</title><g id="Слой_2" data-name="Слой 2"><g id="Layer_2" data-name="Layer 2"><text class="cls-1" transform="translate(4.81 11)">360</text><circle class="cls-2" cx="15.18" cy="5.81" r="0.66"/><g id="Layer_1" data-name="Layer 1"><path class="cls-3" d="M10.4,16.8a8,8,0,0,1-6.91-4H2.57A8.8,8.8,0,0,0,19.16,9.6H20.8l-2-2.4-2,2.4h1.56a8,8,0,0,1-8,7.2Zm0,0"/><path class="cls-3" d="M10.4,0A8.8,8.8,0,0,0,1.75,7.2H0L2,9.6,4,7.2H2.56A8,8,0,0,1,16.79,4h1A8.79,8.79,0,0,0,10.4,0Zm0,0"/></g></g></g></svg>